<?xml version="1.0" encoding="UTF-8"?>
<svg width="53px" height="59px" viewBox="0 0 53 59" version="1.1" xmlns="http://www.w3.org/2000/svg" xmlns:xlink="http://www.w3.org/1999/xlink">
    <!-- Generator: Sketch 42 (36781) - http://www.bohemiancoding.com/sketch -->
    <title>empty-cart</title>
    <desc>Created with Sketch.</desc>
    <defs></defs>
    <g id="Menu-Pages" stroke="none" stroke-width="1" fill="none" fill-rule="evenodd" opacity="0.5">
        <g id="2.-Menu-Page_Empty-Cart" transform="translate(-1014.000000, -548.000000)" fill-rule="nonzero" fill="#000000">
            <g id="empty-cart" transform="translate(1014.000000, 548.000000)">
                <g id="Capa_1">
                    <g id="Group">
                        <path d="M24.3333095,36.7966381 C24.4340095,37.7703238 25.2560143,38.4951619 26.2138,38.4951619 C26.2789143,38.4951619 26.3445333,38.491881 26.4106571,38.4850667 C27.4504667,38.3775524 28.2063476,37.4475286 28.0988333,36.407719 L27.2258476,27.9610333 C27.1183333,26.9212238 26.1878048,26.1663524 25.1485,26.2728571 C24.1086905,26.3803714 23.3528095,27.3103952 23.4603238,28.3502048 L24.3333095,36.7966381 Z" id="Shape"></path>
                        <path d="M36.1790619,38.4850667 C36.2451857,38.491881 36.3108048,38.4951619 36.375919,38.4951619 C37.3339571,38.4951619 38.1557095,37.7703238 38.2564095,36.7966381 L39.1291429,28.3499524 C39.2366571,27.3098905 38.4807762,26.3798667 37.4409667,26.2726048 C36.4004,26.1663524 35.470881,26.9212238 35.3633667,27.960781 L34.4906333,36.4074667 C34.383119,37.4475286 35.139,38.3775524 36.1790619,38.4850667 Z" id="Shape"></path>
                        <path d="M21.5225429,46.7126857 C18.2918143,46.7126857 15.663519,49.340981 15.663519,52.5717095 C15.663519,55.8031952 18.2918143,58.4322476 21.5225429,58.4322476 C24.7532714,58.4322476 27.381819,55.8031952 27.381819,52.5717095 C27.381819,49.340981 24.7532714,46.7126857 21.5225429,46.7126857 Z M21.5225429,54.646281 C20.3792571,54.646281 19.4492333,53.7155 19.4492333,52.5714571 C19.4492333,51.4281714 20.3792571,50.4981476 21.5225429,50.4981476 C22.6658286,50.4981476 23.5961048,51.4281714 23.5961048,52.5714571 C23.5961048,53.7155 22.6658286,54.646281 21.5225429,54.646281 Z" id="Shape"></path>
                        <path d="M41.0671762,46.7126857 C37.8364476,46.7126857 35.2079,49.340981 35.2079,52.5717095 C35.2079,55.8031952 37.8361952,58.4322476 41.0671762,58.4322476 C44.2981571,58.4322476 46.9269571,55.8031952 46.9269571,52.5717095 C46.9269571,49.340981 44.2981571,46.7126857 41.0671762,46.7126857 Z M41.0671762,54.646281 C39.9238905,54.646281 38.9936143,53.7155 38.9936143,52.5714571 C38.9936143,51.4281714 39.9238905,50.4981476 41.0671762,50.4981476 C42.2107143,50.4981476 43.1412429,51.4281714 43.1412429,52.5714571 C43.1412429,53.7155 42.2109667,54.646281 41.0671762,54.646281 Z" id="Shape"></path>
                        <path d="M52.3892381,19.9582857 C52.0308571,19.4946619 51.4778905,19.2231 50.8918619,19.2231 L13.1621714,19.2231 L11.5777238,13.1303714 C11.3606762,12.2962524 10.6075714,11.7140095 9.74569048,11.7140095 L1.98775238,11.7140095 C0.942390476,11.7140095 0.0948952381,12.5615048 0.0948952381,13.6068667 C0.0948952381,14.6522286 0.942390476,15.4997238 1.98775238,15.4997238 L8.28213333,15.4997238 L9.85370952,21.5432381 C9.86153333,21.5770571 9.87036667,21.6106238 9.87995714,21.6436857 L15.7243429,44.1172 C15.9413905,44.951319 16.6944952,45.5335619 17.5563762,45.5335619 L45.0341,45.5335619 C45.895981,45.5335619 46.6490857,44.951319 46.8661333,44.1172 L52.7238952,21.5922 C52.8712857,21.0256048 52.747619,20.4221619 52.3892381,19.9582857 Z M43.5705429,41.7483524 L19.0199333,41.7483524 L14.1467095,23.0090667 L48.444019,23.0090667 L43.5705429,41.7483524 Z" id="Shape"></path>
                        <path d="M23.8641333,13.3385857 C24.233619,13.707819 24.7179381,13.8925619 25.2022571,13.8925619 C25.6868286,13.8925619 26.1714,13.7075667 26.5411381,13.3378286 C27.2801095,12.5983524 27.2798571,11.3997952 26.540381,10.6608238 L20.5874714,4.71069048 C19.8479952,3.97171905 18.6496905,3.97197143 17.9104667,4.71119524 C17.1714952,5.45067143 17.1717476,6.64922857 17.9109714,7.3882 L23.8641333,13.3385857 Z" id="Shape"></path>
                        <path d="M37.3962952,13.8923095 C37.8808667,13.8923095 38.3656905,13.7073143 38.7354286,13.3373238 L44.6795048,7.38794762 C45.4184762,6.64847143 45.417719,5.44991429 44.6782429,4.71119524 C43.9387667,3.97222381 42.7402095,3.97298095 42.0014905,4.71245714 L36.0574143,10.6618333 C35.3184429,11.4013095 35.3192,12.5998667 36.0586762,13.3388381 C36.4281619,13.707819 36.9122286,13.8923095 37.3962952,13.8923095 Z" id="Shape"></path>
                        <path d="M31.2967524,12.1927762 L31.2972571,12.1927762 C32.3423667,12.1927762 33.1898619,11.3455333 33.1901143,10.3004238 L33.1921333,1.8933619 C33.1923857,0.848 32.3451429,0.000252380952 31.299781,1.70145023e-15 L31.2995286,1.70145023e-15 C30.2541667,1.70145023e-15 29.4066714,0.847242857 29.406419,1.89235238 L29.4044,10.2994143 C29.4041476,11.3447762 30.2513905,12.1925238 31.2967524,12.1927762 Z" id="Shape"></path>
                    </g>
                </g>
            </g>
        </g>
    </g>
</svg>